<svg width="40" height="40" viewBox="0 0 40 40" fill="none" xmlns="http://www.w3.org/2000/svg">
  <defs>
    <linearGradient id="frogGradient" x1="0%" y1="0%" x2="100%" y2="100%">
      <stop offset="0%" style="stop-color:#4CAF50"/>
      <stop offset="100%" style="stop-color:#45a049"/>
    </linearGradient>
  </defs>
  <circle cx="20" cy="20" r="19" stroke="url(#frogGradient)" stroke-width="2" fill="none"/>
  <path d="M12 18C12 16.8954 12.8954 16 14 16C15.1046 16 16 16.8954 16 18C16 19.1046 15.1046 20 14 20C12.8954 20 12 19.1046 12 18Z" fill="url(#frogGradient)"/>
  <path d="M24 18C24 16.8954 24.8954 16 26 16C27.1046 16 28 16.8954 28 18C28 19.1046 27.1046 20 26 20C24.8954 20 24 19.1046 24 18Z" fill="url(#frogGradient)"/>
  <path d="M20 28C26 28 30 24 30 18H10C10 24 14 28 20 28Z" stroke="url(#frogGradient)" stroke-width="2" fill="none"/>
</svg>