<!DOCTYPE svg PUBLIC "-//W3C//DTD SVG 1.1//EN" "http://www.w3.org/Graphics/SVG/1.1/DTD/svg11.dtd">
<!-- Uploaded to: SVG Repo, www.svgrepo.com, Transformed by: SVG Repo Mixer Tools -->
<svg version="1.1" id="Icons" xmlns="http://www.w3.org/2000/svg" xmlns:xlink="http://www.w3.org/1999/xlink" viewBox="0 0 32 32" xml:space="preserve" width="800px" height="800px" fill="#ffffff" stroke="#ffffff">
<g id="SVGRepo_bgCarrier" stroke-width="0"/>
<g id="SVGRepo_tracerCarrier" stroke-linecap="round" stroke-linejoin="round"/>
<g id="SVGRepo_iconCarrier"> <style type="text/css"> .st0{fill:none;stroke:#ffffff;stroke-width:2;stroke-linecap:round;stroke-linejoin:round;stroke-miterlimit:10;} .st1{fill:none;stroke:#ffffff;stroke-width:2;stroke-linejoin:round;stroke-miterlimit:10;} </style> <ellipse class="st0" cx="14" cy="8" rx="10" ry="5"/> <path class="st0" d="M30.8,21.2c-1.1,0.2-2,0-2.4-0.7c-0.4-0.7-0.1-1.7,0.6-2.5c-0.9-0.9-1.9-1.5-3.1-1.8c-0.3,1-1,1.8-1.8,1.8 s-1.5-0.7-1.8-1.8c-1.2,0.3-2.3,0.9-3.1,1.8c0.7,0.8,1,1.8,0.6,2.5c-0.4,0.7-1.4,0.9-2.4,0.7C17.1,21.8,17,22.4,17,23 s0.1,1.2,0.2,1.8c1.1-0.2,2,0,2.4,0.7c0.4,0.7,0.1,1.7-0.6,2.5c0.9,0.9,1.9,1.5,3.1,1.8c0.3-1,1-1.8,1.8-1.8s1.5,0.7,1.8,1.8 c1.2-0.3,2.3-0.9,3.1-1.8c-0.7-0.8-1-1.8-0.6-2.5c0.4-0.7,1.4-0.9,2.4-0.7c0.2-0.6,0.2-1.2,0.2-1.8S30.9,21.8,30.8,21.2z"/> <g> <path d="M24,24c-0.1,0-0.3,0-0.4-0.1c-0.1-0.1-0.2-0.1-0.3-0.2c-0.1-0.1-0.2-0.2-0.2-0.3c0-0.1-0.1-0.3-0.1-0.4 c0-0.1,0-0.3,0.1-0.4c0.1-0.1,0.1-0.2,0.2-0.3c0.4-0.4,1-0.4,1.4,0c0.1,0.1,0.2,0.2,0.2,0.3c0,0.1,0.1,0.3,0.1,0.4 c0,0.1,0,0.3-0.1,0.4c-0.1,0.1-0.1,0.2-0.2,0.3C24.5,23.9,24.3,24,24,24z"/> </g> <path class="st0" d="M23.3,17.8c0.4-0.6,0.7-1.2,0.7-1.8V8"/> <path class="st0" d="M4,8v8c0,2.8,4.5,5,10,5c2.1,0,4-0.3,5.6-0.9"/> <path class="st0" d="M4,16v8c0,2.8,4.5,5,10,5c2,0,3.8-0.3,5.3-0.8"/> </g>
</svg>